<svg width="131" height="100" viewBox="0 0 131 100" fill="none" xmlns="http://www.w3.org/2000/svg">
  <path d="M62.6436 95.469L62.6532 95.4857L62.6635 95.502C63.866 97.4059 65.6317 98.4 67.861 98.4C70.0789 98.4 72.095 97.621 73.8811 96.1169L73.9139 96.0894L73.9441 96.0591L74.2961 95.7071L74.8031 95.2001C75.2766 94.8123 75.6873 94.3309 75.8548 93.7359C75.9834 93.3845 76.1047 92.9511 76.0533 92.54C76.0229 92.2965 75.9204 91.9762 75.6374 91.7246C75.3532 91.472 75.0214 91.408 74.773 91.408C74.1985 91.408 73.6864 91.685 73.277 91.992L73.2201 92.0346L73.1699 92.0849L72.4421 92.8127C72.0608 93.114 71.5547 93.4642 70.915 93.864L70.8889 93.8803L70.8638 93.8983C70.3966 94.2319 69.9982 94.352 69.653 94.352C69.282 94.352 68.6491 94.0591 67.8386 92.6888C67.1967 91.4616 66.813 89.3285 66.813 86.136C66.813 82.3468 67.5532 78.6823 69.0373 75.1352C70.6436 71.416 72.3744 67.9551 74.2291 64.7513C75.6684 62.2962 77.2356 59.7971 78.9309 57.2539C80.7435 54.5779 82.2606 51.9789 83.4785 49.457C84.7965 46.8195 85.501 44.4028 85.501 42.232C85.501 40.6829 85.145 39.289 84.077 38.488C83.2038 37.8331 82.1772 37.52 81.045 37.52C78.8415 37.52 76.6477 38.2879 74.4786 39.7331C72.4275 41.0714 70.4419 42.8414 68.5183 45.0274L68.5164 45.0295C66.7008 47.1044 64.9729 49.3077 63.3323 51.6389C61.8628 53.7136 60.2277 56.2532 58.4275 59.2535L58.4275 59.2535L58.4231 59.261C58.0789 59.846 57.7573 60.4196 57.4587 60.9815C57.7018 59.7886 58.1963 57.956 58.9614 55.4522C59.8955 52.3949 61.0006 49.0368 62.2772 45.3774L62.2795 45.3707C63.5573 41.6226 64.7489 38.2606 65.8544 35.2842L65.8545 35.2842L65.8579 35.2747C66.6247 33.1445 67.307 31.2259 67.9044 29.519C68.6078 27.6696 68.989 26.0111 68.989 24.568C68.989 21.5519 68.067 19.1582 66.0392 17.6316C64.3607 16.3083 62.7346 15.504 61.205 15.504C59.0326 15.504 57.0152 16.3986 55.1706 18.0552C53.3693 19.5887 51.769 21.5538 50.3607 23.9302C48.9711 26.2751 47.7552 28.707 46.713 31.2256L46.71 31.233L46.707 31.2403C45.2389 34.9538 44.0303 38.7955 43.081 42.7649C42.4117 45.5031 41.7864 48.4531 41.2046 51.6143C41.11 51.3376 41.0118 51.0527 40.9098 50.7594C40.3031 48.6827 39.5677 46.608 38.7041 44.5354C37.8253 42.4263 36.8017 40.6351 35.6223 39.1808C34.4107 37.6009 32.9577 36.624 31.253 36.624C30.751 36.624 30.2574 36.666 29.8553 36.8122C29.6486 36.8874 29.4003 37.0133 29.1958 37.2363C28.9714 37.4811 28.845 37.7957 28.845 38.136C28.845 38.5801 29.0716 38.9048 29.2659 39.0991C29.4582 39.2914 29.6921 39.4336 29.9098 39.5424C30.0275 39.6013 30.0987 39.6472 30.137 39.6761L30.1861 39.7743L30.3243 39.8999C31.1585 40.6583 31.69 41.4572 31.9683 42.2922C32.3044 43.3005 32.5976 44.2641 32.8482 45.1831L32.8488 45.1852C33.7729 48.5457 34.5331 52.4255 35.1259 56.8294L35.1272 56.8387L35.1286 56.8481C35.8106 61.2808 36.4503 65.2475 37.0478 68.7477C37.3116 70.801 37.7841 72.4688 38.5381 73.65C39.327 74.886 40.4517 75.616 41.877 75.616C42.993 75.616 44.2338 75.3832 44.7893 74.3533C45.2724 73.5953 45.437 72.5601 45.437 71.416C45.437 69.8959 45.2592 68.1774 44.9129 66.2672C44.6646 64.4397 44.541 62.6574 44.541 60.92C44.541 57.8375 44.874 54.5337 45.5452 51.0063C46.3053 47.4611 47.2338 43.9579 48.3309 40.4968C49.5144 37.032 50.7797 33.8703 52.1258 31.0098C53.4717 28.1499 54.758 25.916 55.9796 24.2845C56.6259 23.4782 57.1972 22.9179 57.6902 22.5657C58.1887 22.2097 58.5422 22.112 58.773 22.112C58.8785 22.112 59.1684 22.1458 59.5266 22.9338L59.5502 22.9857L59.5795 23.0345C59.9698 23.685 60.205 24.5992 60.205 25.848C60.205 27.7797 59.8414 30.1633 59.0863 33.0161C58.3209 35.9075 57.4273 39.099 56.4053 42.5911L56.403 42.5989L56.4008 42.6068C55.456 46.0426 54.5977 49.6476 53.8257 53.4215C53.0442 57.156 52.653 60.8932 52.653 64.632V64.6355V64.639V64.6425V64.6461V64.6496V64.6531V64.6567V64.6603V64.6638V64.6674V64.671V64.6746V64.6782V64.6818V64.6854V64.689V64.6926V64.6963V64.6999V64.7036V64.7072V64.7109V64.7146V64.7183V64.7219V64.7256V64.7294V64.7331V64.7368V64.7405V64.7443V64.748V64.7518V64.7555V64.7593V64.7631V64.7668V64.7706V64.7744V64.7783V64.7821V64.7859V64.7897V64.7936V64.7974V64.8013V64.8051V64.809V64.8129V64.8168V64.8207V64.8246V64.8285V64.8324V64.8363V64.8403V64.8442V64.8481V64.8521V64.8561V64.86V64.864V64.868V64.872V64.876V64.88V64.884V64.8881V64.8921V64.8961V64.9002V64.9043V64.9083V64.9124V64.9165V64.9206V64.9247V64.9288V64.9329V64.937V64.9411V64.9453V64.9494V64.9536V64.9577V64.9619V64.9661V64.9703V64.9744V64.9786V64.9828V64.9871V64.9913V64.9955V64.9998V65.004V65.0083V65.0125V65.0168V65.0211V65.0254V65.0296V65.0339V65.0383V65.0426V65.0469V65.0512V65.0556V65.0599V65.0643V65.0686V65.073V65.0774V65.0818V65.0862V65.0906V65.095V65.0994V65.1038V65.1083V65.1127V65.1171V65.1216V65.1261V65.1305V65.135V65.1395V65.144V65.1485V65.153V65.1575V65.1621V65.1666V65.1711V65.1757V65.1803V65.1848V65.1894V65.194V65.1986V65.2032V65.2078V65.2124V65.217V65.2216V65.2263V65.2309V65.2356V65.2402V65.2449V65.2496V65.2543V65.2589V65.2636V65.2683V65.2731V65.2778V65.2825V65.2873V65.292V65.2968V65.3015V65.3063V65.3111V65.3158V65.3206V65.3254V65.3303V65.3351V65.3399V65.3447V65.3496V65.3544V65.3593V65.3641V65.369V65.3739V65.3788V65.3837V65.3886V65.3935V65.3984V65.4033V65.4083V65.4132V65.4181V65.4231V65.4281V65.433V65.438V65.443V65.448V65.453V65.458V65.463V65.4681V65.4731V65.4781V65.4832V65.4883V65.4933V65.4984V65.5035V65.5086V65.5137V65.5188V65.5239V65.529V65.5341V65.5393V65.5444V65.5496V65.5547V65.5599V65.5651V65.5703V65.5754V65.5806V65.5858V65.5911V65.5963V65.6015V65.6068V65.612V65.6173V65.6225V65.6278V65.6331V65.6383V65.6436V65.6489V65.6543V65.6596V65.6649V65.6702V65.6756V65.6809V65.6863V65.6916V65.697V65.7024V65.7078V65.7132V65.7186V65.724V65.7294V65.7348V65.7402V65.7457V65.7511V65.7566V65.7621V65.7675V65.773V65.7785V65.784V65.7895V65.795V65.8005V65.8061V65.8116V65.8171V65.8227V65.8283V65.8338V65.8394V65.845V65.8506V65.8562V65.8618V65.8674V65.873V65.8786V65.8843V65.8899V65.8956V65.9012V65.9069V65.9126V65.9183V65.9239V65.9296V65.9353V65.9411V65.9468V65.9525V65.9583V65.964V65.9698V65.9755V65.9813V65.9871V65.9928V65.9986V66.0044V66.0103V66.0161V66.0219V66.0277V66.0336V66.0394V66.0453V66.0511V66.057V66.0629V66.0688V66.0747V66.0806V66.0865V66.0924V66.0983V66.1043V66.1102V66.1161V66.1221V66.1281V66.134V66.14V66.146V66.152V66.158V66.164V66.17V66.1761V66.1821V66.1881V66.1942V66.2002V66.2063V66.2124V66.2185V66.2246V66.2307V66.2368V66.2429V66.249V66.2551V66.2613V66.2674V66.2736V66.2797V66.2859V66.2921V66.2982V66.3044V66.3106V66.3168V66.3231V66.3293V66.3355V66.3418V66.348V66.3543V66.3605V66.3668V66.3731V66.3793V66.3856V66.3919V66.3983V66.4046V66.4109V66.4172V66.4236V66.4299V66.4363V66.4426V66.449V66.4554V66.4618V66.4682V66.4746V66.481V66.4874V66.4938V66.5002V66.5067V66.5131V66.5196V66.5261V66.5325V66.539V66.5455V66.552V66.5585V66.565V66.5715V66.5781V66.5846V66.5911V66.5977V66.6042V66.6108V66.6174V66.624V66.6306V66.6372V66.6438V66.6504V66.657V66.6636V66.6703V66.6769V66.6836V66.6902V66.6969V66.7036V66.7102V66.7169V66.7236V66.7303V66.7371V66.7438V66.7505V66.7573V66.764V66.7708V66.7775V66.7843V66.7911V66.7978V66.8046V66.8114V66.8182V66.8251V66.8319V66.8387V66.8456V66.8524V66.8593V66.8661V66.873V66.8799V66.8868V66.8937V66.9006V66.9075V66.9144V66.9213V66.9282V66.9352V66.9421V66.9491V66.9561V66.963V66.97V66.977V66.984V66.991V66.998V67.005V67.0121V67.0191V67.0262V67.0332V67.0402V67.0473V67.0544V67.0615V67.0686V67.0757V67.0828V67.0899V67.097V67.1041V67.1113V67.1184V67.1256V67.1327V67.1399V67.1471V67.1542V67.1614V67.1686V67.1758V67.1831V67.1903V67.1975V67.2048V67.212V67.2193V67.2265V67.2338V67.2411V67.2483V67.2556V67.2629V67.2702V67.2776V67.2849V67.2922V67.2996V67.3069V67.3143V67.3216V67.329V67.3364V67.3438V67.3512V67.3586V67.366V67.3734V67.3808V67.3882V67.3957V67.4031V67.4106V67.4181V67.4255V67.433V67.4405V67.448V67.4837L52.6555 67.5192C52.7384 68.6786 52.8246 69.5362 52.9212 70.0392C53.0189 70.7965 53.2114 71.5161 53.5019 72.1939L53.5244 72.2465L53.5528 72.2961C54.0398 73.1484 54.812 73.696 55.829 73.696C56.4677 73.696 56.9998 73.3989 57.365 72.912C57.6951 72.4719 57.8703 71.907 57.9674 71.3244L57.9675 71.3244L57.9694 71.3121C58.1385 70.2125 58.2627 69.4689 58.3432 69.0641C58.9114 66.5563 60.224 63.4574 62.3305 59.75C64.428 56.0583 66.8588 52.7063 69.6222 49.6917L69.6334 49.6794L69.6443 49.6668C70.1414 49.0868 70.9823 48.1613 72.1761 46.8823C73.3399 45.6353 74.5419 44.5167 75.7817 43.5249L75.7817 43.5249L75.7876 43.5201C76.4438 42.9869 76.9879 42.6122 77.4253 42.3753C77.7514 42.1986 77.973 42.1236 78.108 42.0952C78.1178 42.1602 78.125 42.2472 78.125 42.36C78.125 42.9564 77.9154 43.9785 77.4083 45.4998L77.4053 45.5087L77.4025 45.5177C77.0008 46.8033 76.1773 48.7072 74.9026 51.2568L74.8965 51.2689L74.8908 51.2811C73.7008 53.831 72.2969 56.724 70.6786 59.9608L70.6738 59.9703L70.6693 59.9799C69.1265 63.2369 67.6271 66.6213 66.171 70.1328C64.7069 73.5781 63.4989 76.9425 62.5484 80.2259L62.5466 80.2325C61.5911 83.6201 61.101 86.6585 61.101 89.336C61.101 91.6204 61.6051 93.6753 62.6436 95.469Z" stroke="black" stroke-width="2"/>
  
</svg>