<svg width="131" height="100" viewBox="0 0 131 100" fill="none" xmlns="http://www.w3.org/2000/svg">
  <path d="M106.382 58.3177C106.423 58.2045 106.464 58.0918 106.504 57.9797C106.495 58.5394 106.49 59.0928 106.49 59.64C106.49 61.9687 106.576 64.2556 106.749 66.5007L106.751 66.522L106.753 66.5431C107.019 68.7616 107.559 70.6483 108.41 72.1623L108.422 72.1824L108.434 72.202C109.472 73.8622 111.031 74.72 112.994 74.72C114.915 74.72 116.757 73.9067 118.502 72.4369L118.514 72.4272L118.525 72.4172C120.194 70.9235 121.69 69.2964 123.01 67.536L123.017 67.5267L123.024 67.5172C124.305 65.7233 125.263 64.2892 125.884 63.2261C126.538 62.1626 127.009 61.2935 127.23 60.667C127.493 60.135 127.715 59.5994 127.895 59.0602L127.902 59.0396L127.908 59.0187C128.056 58.4979 128.371 57.7012 128.878 56.6031L128.893 56.5696L128.906 56.5351C129.195 55.7642 129.354 55.0044 129.354 54.264C129.354 53.8369 129.311 53.3796 129.14 52.9939C129.049 52.7893 128.903 52.5615 128.666 52.384C128.417 52.1973 128.128 52.112 127.842 52.112C127.409 52.112 127.057 52.3067 126.814 52.4913C126.562 52.6821 126.333 52.9327 126.123 53.2046C125.701 53.7499 125.251 54.5211 124.772 55.4808C124.265 56.4948 123.544 57.8933 122.609 59.6789C121.69 61.349 120.644 63.0223 119.471 64.6985L119.461 64.7126L119.452 64.727C118.373 66.3867 117.263 67.7803 116.127 68.9169L116.114 68.93L116.101 68.9436C115.05 70.0754 114.276 70.416 113.762 70.416C113.611 70.416 113.151 70.3073 112.657 68.9072C112.207 67.6331 111.946 65.2694 111.946 61.688C111.946 57.0397 112.242 52.3911 112.833 47.7418C113.512 42.9889 114.318 38.5375 115.25 34.387L115.251 34.3829C116.187 30.1282 117.079 26.3453 117.928 23.0329C118.865 19.6276 119.63 16.9065 120.225 14.8676C120.735 13.167 121.158 11.8138 121.495 10.8042C121.865 9.69326 122.058 8.60489 122.058 7.544C122.058 6.21484 121.775 4.99094 121.185 3.89683C120.688 2.82249 119.873 1.936 118.626 1.936C117.618 1.936 116.77 2.51485 116.081 3.3015L116.057 3.32985L116.034 3.36C115.443 4.14858 115.011 5.06654 114.726 6.09703C112.75 11.8574 111.247 17.7884 110.216 23.8893L110.216 23.8893L110.214 23.9029C109.278 29.9445 108.469 35.9441 107.787 41.9018C107.686 42.2363 107.577 42.5936 107.46 42.9738C107.41 41.6972 107.019 40.5042 106.299 39.4116C105.494 37.9519 104.104 37.264 102.37 37.264C100.243 37.264 98.179 38.2791 96.1941 40.0833C94.3169 41.782 92.5128 44.0345 90.7738 46.8159C89.0389 49.5057 87.48 52.4082 86.0962 55.5219C84.7133 58.6334 83.6284 61.6253 82.8452 64.4969C82.0653 67.3568 81.658 69.7989 81.658 71.8C81.658 74.5642 82.1917 76.9298 83.3311 78.8334C84.5316 80.9279 86.3952 82.016 88.802 82.016C91.038 82.016 92.9916 81.1796 94.6182 79.558C96.1317 78.1317 97.5024 76.4476 98.7337 74.5129L98.7362 74.5088C100.214 72.1619 101.6 69.5615 102.896 66.7098C104.185 63.8744 105.346 61.0802 106.378 58.3271L106.378 58.3271L106.382 58.3177Z" stroke="black" stroke-width="2"/>
  
</svg>