<svg width="131" height="100" viewBox="0 0 131 100" fill="none" xmlns="http://www.w3.org/2000/svg">
  <path d="M12.2538 67.0947C11.3243 65.044 10.2683 62.8365 9.08643 60.4728C7.78893 57.8778 7.144 55.1719 7.144 52.344C7.144 51.7031 7.18405 51.0619 7.26428 50.42L7.26437 50.42L7.26588 50.4064C7.34308 49.7117 7.4979 49.0126 7.73268 48.3082L7.73704 48.2952L7.74103 48.282C8.54953 45.6139 9.96879 43.0902 12.0207 40.7097C14.1647 38.2362 16.6342 36.2203 19.4318 34.6569C22.2012 33.1093 24.9788 32.352 27.776 32.352C28.7452 32.352 29.8067 32.4328 30.9626 32.598L30.9626 32.598L30.9718 32.5992C32.0796 32.7469 32.7417 33.1298 33.1306 33.6299L33.1453 33.6487L33.1607 33.6668C33.4886 34.0493 33.688 34.5717 33.688 35.32C33.688 35.5037 33.6786 35.6348 33.6661 35.7226C33.6606 35.7608 33.6555 35.7839 33.6528 35.7947C33.5377 36.0321 33.3523 36.5033 33.1117 37.1449L33.0917 37.1982L33.0779 37.2535C32.8984 37.9713 32.792 38.616 32.792 39.16C32.792 39.4955 32.8422 39.9221 33.088 40.2907C33.3814 40.7309 33.842 40.928 34.304 40.928C35.0634 40.928 35.75 40.6642 36.2911 40.1231C36.6754 39.7388 36.994 39.328 37.2221 38.8871C37.8855 37.8307 38.248 36.7226 38.248 35.576C38.248 33.797 37.4523 32.2277 36.023 30.8888C34.7088 29.5787 33.1179 28.6477 31.2703 28.0923C29.532 27.5443 27.5518 27.28 25.344 27.28C24.5389 27.28 23.734 27.3247 22.9296 27.4141L23.0399 28.4071L22.9296 27.4141C22.1289 27.5031 21.366 27.6368 20.642 27.8167C17.6314 28.439 14.7185 29.5899 11.9055 31.2601L11.9054 31.2601L11.8934 31.2674C9.12566 32.9638 6.84368 35.1557 5.05595 37.8373C3.23568 40.5677 2.25142 43.7775 2.07319 47.4313L2.07308 47.4335C1.89798 51.1982 2.33102 54.4274 3.42798 57.0784C4.47237 59.6023 5.65219 61.877 6.97039 63.8983L6.976 63.9069L6.98177 63.9153C8.02464 65.4449 8.79017 66.9574 9.29025 68.4532C8.91413 68.6524 8.42422 68.9247 7.82386 69.2678L7.80975 69.2758L7.7959 69.2843C7.24246 69.6249 6.80879 69.8893 6.49351 70.0785C6.33569 70.1732 6.20996 70.2476 6.11496 70.3026C6.06747 70.3301 6.02956 70.3516 6.00036 70.3678C5.98584 70.3759 5.97446 70.3821 5.96585 70.3867L5.95602 70.3919C5.95365 70.3931 5.95263 70.3937 5.95279 70.3936C4.3356 71.2022 3.09018 72.1579 2.35634 73.3111C1.71497 74.319 1.304 75.3221 1.304 76.28C1.304 77.0775 1.53457 77.8211 1.97809 78.4899C2.83531 79.8286 4.35368 80.352 6.144 80.352C7.52666 80.352 8.91686 79.9583 10.3032 79.2228C11.703 78.5651 12.783 77.6742 13.4219 76.5029C14.0103 75.424 14.312 74.2788 14.312 73.08C14.312 72.1893 14.17 71.2848 13.8957 70.3692C15.0043 69.7992 15.961 69.3476 16.7686 69.0111C17.8059 68.5789 18.4069 68.3398 18.6202 68.2687L18.6418 68.2615L18.663 68.2533C19.2542 68.026 19.7731 67.7716 20.1617 67.4726C20.5286 67.1904 20.968 66.7187 20.968 66.04C20.968 65.5732 20.7409 65.1456 20.3225 64.8945C19.9855 64.6923 19.6087 64.656 19.328 64.656H19.3275H19.327H19.3265H19.326H19.3255H19.325H19.3245H19.3239H19.3234H19.3229H19.3224H19.3219H19.3213H19.3208H19.3203H19.3198H19.3192H19.3187H19.3181H19.3176H19.3171H19.3165H19.316H19.3154H19.3149H19.3143H19.3138H19.3132H19.3127H19.3121H19.3116H19.311H19.3104H19.3099H19.3093H19.3087H19.3082H19.3076H19.307H19.3064H19.3059H19.3053H19.3047H19.3041H19.3035H19.3029H19.3023H19.3018H19.3012H19.3006H19.3H19.2994H19.2988H19.2982H19.2975H19.2969H19.2963H19.2957H19.2951H19.2945H19.2939H19.2932H19.2926H19.292H19.2914H19.2907H19.2901H19.2895H19.2889H19.2882H19.2876H19.2869H19.2863H19.2857H19.285H19.2844H19.2837H19.2831H19.2824H19.2818H19.2811H19.2804H19.2798H19.2791H19.2784H19.2778H19.2771H19.2764H19.2758H19.2751H19.2744H19.2737H19.2731H19.2724H19.2717H19.271H19.2703H19.2696H19.2689H19.2682H19.2675H19.2668H19.2661H19.2654H19.2647H19.264H19.2633H19.2626H19.2619H19.2612H19.2605H19.2598H19.259H19.2583H19.2576H19.2569H19.2561H19.2554H19.2547H19.2539H19.2532H19.2525H19.2517H19.251H19.2502H19.2495H19.2488H19.248H19.2472H19.2465H19.2457H19.245H19.2442H19.2435H19.2427H19.2419H19.2412H19.2404H19.2396H19.2389H19.2381H19.2373H19.2365H19.2358H19.235H19.2342H19.2334H19.2326H19.2318H19.231H19.2302H19.2294H19.2286H19.2278H19.227H19.2262H19.2254H19.2246H19.2238H19.223H19.2222H19.2214H19.2206H19.2197H19.2189H19.2181H19.2173H19.2164H19.2156H19.2148H19.2139H19.2131H19.2123H19.2114H19.2106H19.2098H19.2089H19.2081H19.2072H19.2064H19.2055H19.2047H19.2038H19.2029H19.2021H19.2012H19.2004H19.1995H19.1986H19.1977H19.1969H19.196H19.1951H19.1942H19.1934H19.1925H19.1916H19.1907H19.1898H19.188H19.1872H19.1863H19.1854H19.1845H19.1836H19.1827H19.1818H19.1808H19.1799H19.179H19.1781H19.1772H19.1763H19.1754H19.1744H19.1735H19.1726H19.1717H19.1707H19.1698H19.1689H19.1679H19.167H19.1661H19.1651H19.1642H19.1632H19.1623H19.1613H19.1604H19.1594H19.1585H19.1575H19.1566H19.1556H19.1546H19.1537H19.1527H19.1518H19.1508H19.1498H19.1488H19.1479H19.1469H19.1459H19.1449H19.1439H19.143H19.142H19.141H19.14H19.139H19.138H19.137H19.136H19.135H19.134H19.133H19.132H19.131H19.13H19.129H19.1279H19.1269H19.1259H19.1249H19.1239H19.1228H19.1218H19.1208H19.1198H19.1187H19.1177H19.1166H19.1156H19.1146H19.1135H19.1125H19.1114H19.1104H19.1093H19.1083H19.1072H19.1062H19.1051H19.1041H19.103H19.1019H19.1009H19.0998H19.0987H19.0977H19.0966H19.0955H19.0944H19.0934H19.0923H19.0912H19.0901H19.089H19.0879H19.0868H19.0858H19.0847H19.0836H19.0825H19.0814H19.0803H19.0792H19.078H19.0769H19.0758H19.0747H19.0736H19.0725H19.0714H19.0702H19.0691H19.068H19.0669H19.0657H19.0646H19.0635H19.0624H19.0612H19.0601H19.0589H19.0578H19.0567H19.0555H19.0544H19.0532H19.0521H19.0509H19.0498H19.0486H19.0474H19.0463H19.0451H19.0439H19.0428H19.0416H19.0404H19.0393H19.0381H19.0369H19.0357H19.0346H19.0334H19.0322H19.031H19.0298H19.0286H19.0274H19.0262H19.025H19.0238H19.0226H19.0214H19.0202H19.019H19.0178H19.0166H19.0154H19.0142H19.013H19.0118H19.0105H19.0093H19.0081H19.0069H19.0056H19.0044H19.0032H19.0019H19.0007H18.9995H18.9982H18.997H18.9957H18.9945H18.9932H18.992H18.9907H18.9895H18.9882H18.987H18.9857H18.9845H18.9832H18.9819H18.9807H18.9794H18.9781H18.9769H18.9756H18.9743H18.973H18.9718H18.9705H18.9692H18.9679H18.9666H18.9653H18.964H18.9627H18.9614H18.9601H18.9588H18.9575H18.9562H18.9549H18.9536H18.9523H18.951H18.9497H18.9484H18.9471H18.9457H18.9444H18.9431H18.9418H18.9404H18.9391H18.9378H18.9364H18.9351H18.9338H18.9324H18.9311H18.9298H18.9284H18.9271H18.9257H18.9244H18.923H18.9217H18.9203H18.9189H18.9176H18.9162H18.9149H18.9135H18.9121H18.9107H18.9094H18.908H18.9066H18.9052H18.9039H18.9025H18.9011H18.8997H18.8983H18.8969H18.8955H18.8942H18.8928H18.8914H18.89H18.8886H18.8872H18.8857H18.8843H18.8829H18.8815H18.8801H18.8787H18.8773H18.8759H18.8744H18.873H18.8716H18.8702H18.8687H18.8673H18.8659H18.8644H18.863H18.8616H18.8601H18.8587H18.8572H18.8558H18.8543H18.8529H18.8514H18.85H18.8485H18.8471H18.8456H18.8441H18.8427H18.8412H18.8398H18.8383H18.8368H18.8353H18.8339H18.8324H18.8309H18.8294H18.8279H18.8265H18.825H18.8235H18.822H18.8205H18.819H18.8175H18.816C18.5037 64.656 18.1853 64.7288 17.8872 64.8263C16.182 65.2938 14.3028 66.0544 12.2538 67.0947ZM8.51511 73.9151C8.96807 73.4621 9.46628 73.0279 10.0107 72.613C9.87964 72.9781 9.63669 73.3791 9.24071 73.819C8.6546 74.4703 8.10139 74.9218 7.58622 75.2094C7.70077 74.8301 7.97024 74.412 8.48067 73.9479L8.49828 73.9319L8.51511 73.9151ZM7.52384 75.7856C7.52381 75.7856 7.5236 75.7849 7.52325 75.7835L7.52384 75.7856Z" stroke="black" stroke-width="2"/>
</svg>