<svg width="131" height="100" viewBox="0 0 131 100" fill="white" xmlns="http://www.w3.org/2000/svg">
  <path d="M106.382 58.3177C106.423 58.2045 106.464 58.0918 106.504 57.9797C106.495 58.5394 106.49 59.0928 106.49 59.64C106.49 61.9687 106.576 64.2556 106.749 66.5007L106.751 66.522L106.753 66.5431C107.019 68.7616 107.559 70.6483 108.41 72.1623L108.422 72.1824L108.434 72.202C109.472 73.8622 111.031 74.72 112.994 74.72C114.915 74.72 116.757 73.9067 118.502 72.4369L118.514 72.4272L118.525 72.4172C120.194 70.9235 121.69 69.2964 123.01 67.536L123.017 67.5267L123.024 67.5172C124.305 65.7233 125.263 64.2892 125.884 63.2261C126.538 62.1626 127.009 61.2935 127.23 60.667C127.493 60.135 127.715 59.5994 127.895 59.0602L127.902 59.0396L127.908 59.0187C128.056 58.4979 128.371 57.7012 128.878 56.6031L128.893 56.5696L128.906 56.5351C129.195 55.7642 129.354 55.0044 129.354 54.264C129.354 53.8369 129.311 53.3796 129.14 52.9939C129.049 52.7893 128.903 52.5615 128.666 52.384C128.417 52.1973 128.128 52.112 127.842 52.112C127.409 52.112 127.057 52.3067 126.814 52.4913C126.562 52.6821 126.333 52.9327 126.123 53.2046C125.701 53.7499 125.251 54.5211 124.772 55.4808C124.265 56.4948 123.544 57.8933 122.609 59.6789C121.69 61.349 120.644 63.0223 119.471 64.6985L119.461 64.7126L119.452 64.727C118.373 66.3867 117.263 67.7803 116.127 68.9169L116.114 68.93L116.101 68.9436C115.05 70.0754 114.276 70.416 113.762 70.416C113.611 70.416 113.151 70.3073 112.657 68.9072C112.207 67.6331 111.946 65.2694 111.946 61.688C111.946 57.0397 112.242 52.3911 112.833 47.7418C113.512 42.9889 114.318 38.5375 115.25 34.387L115.251 34.3829C116.187 30.1282 117.079 26.3453 117.928 23.0329C118.865 19.6276 119.63 16.9065 120.225 14.8676C120.735 13.167 121.158 11.8138 121.495 10.8042C121.865 9.69326 122.058 8.60489 122.058 7.544C122.058 6.21484 121.775 4.99094 121.185 3.89683C120.688 2.82249 119.873 1.936 118.626 1.936C117.618 1.936 116.77 2.51485 116.081 3.3015L116.057 3.32985L116.034 3.36C115.443 4.14858 115.011 5.06654 114.726 6.09703C112.75 11.8574 111.247 17.7884 110.216 23.8893L110.216 23.8893L110.214 23.9029C109.278 29.9445 108.469 35.9441 107.787 41.9018C107.686 42.2363 107.577 42.5936 107.46 42.9738C107.41 41.6972 107.019 40.5042 106.299 39.4116C105.494 37.9519 104.104 37.264 102.37 37.264C100.243 37.264 98.179 38.2791 96.1941 40.0833C94.3169 41.782 92.5128 44.0345 90.7738 46.8159C89.0389 49.5057 87.48 52.4082 86.0962 55.5219C84.7133 58.6334 83.6284 61.6253 82.8452 64.4969C82.0653 67.3568 81.658 69.7989 81.658 71.8C81.658 74.5642 82.1917 76.9298 83.3311 78.8334C84.5316 80.9279 86.3952 82.016 88.802 82.016C91.038 82.016 92.9916 81.1796 94.6182 79.558C96.1317 78.1317 97.5024 76.4476 98.7337 74.5129L98.7362 74.5088C100.214 72.1619 101.6 69.5615 102.896 66.7098C104.185 63.8744 105.346 61.0802 106.378 58.3271L106.378 58.3271L106.382 58.3177Z" stroke="black" stroke-width="2"/>
  <path d="M62.6436 95.469L62.6532 95.4857L62.6635 95.502C63.866 97.4059 65.6317 98.4 67.861 98.4C70.0789 98.4 72.095 97.621 73.8811 96.1169L73.9139 96.0894L73.9441 96.0591L74.2961 95.7071L74.8031 95.2001C75.2766 94.8123 75.6873 94.3309 75.8548 93.7359C75.9834 93.3845 76.1047 92.9511 76.0533 92.54C76.0229 92.2965 75.9204 91.9762 75.6374 91.7246C75.3532 91.472 75.0214 91.408 74.773 91.408C74.1985 91.408 73.6864 91.685 73.277 91.992L73.2201 92.0346L73.1699 92.0849L72.4421 92.8127C72.0608 93.114 71.5547 93.4642 70.915 93.864L70.8889 93.8803L70.8638 93.8983C70.3966 94.2319 69.9982 94.352 69.653 94.352C69.282 94.352 68.6491 94.0591 67.8386 92.6888C67.1967 91.4616 66.813 89.3285 66.813 86.136C66.813 82.3468 67.5532 78.6823 69.0373 75.1352C70.6436 71.416 72.3744 67.9551 74.2291 64.7513C75.6684 62.2962 77.2356 59.7971 78.9309 57.2539C80.7435 54.5779 82.2606 51.9789 83.4785 49.457C84.7965 46.8195 85.501 44.4028 85.501 42.232C85.501 40.6829 85.145 39.289 84.077 38.488C83.2038 37.8331 82.1772 37.52 81.045 37.52C78.8415 37.52 76.6477 38.2879 74.4786 39.7331C72.4275 41.0714 70.4419 42.8414 68.5183 45.0274L68.5164 45.0295C66.7008 47.1044 64.9729 49.3077 63.3323 51.6389C61.8628 53.7136 60.2277 56.2532 58.4275 59.2535L58.4275 59.2535L58.4231 59.261C58.0789 59.846 57.7573 60.4196 57.4587 60.9815C57.7018 59.7886 58.1963 57.956 58.9614 55.4522C59.8955 52.3949 61.0006 49.0368 62.2772 45.3774L62.2795 45.3707C63.5573 41.6226 64.7489 38.2606 65.8544 35.2842L65.8545 35.2842L65.8579 35.2747C66.6247 33.1445 67.307 31.2259 67.9044 29.519C68.6078 27.6696 68.989 26.0111 68.989 24.568C68.989 21.5519 68.067 19.1582 66.0392 17.6316C64.3607 16.3083 62.7346 15.504 61.205 15.504C59.0326 15.504 57.0152 16.3986 55.1706 18.0552C53.3693 19.5887 51.769 21.5538 50.3607 23.9302C48.9711 26.2751 47.7552 28.707 46.713 31.2256L46.71 31.233L46.707 31.2403C45.2389 34.9538 44.0303 38.7955 43.081 42.7649C42.4117 45.5031 41.7864 48.4531 41.2046 51.6143C41.11 51.3376 41.0118 51.0527 40.9098 50.7594C40.3031 48.6827 39.5677 46.608 38.7041 44.5354C37.8253 42.4263 36.8017 40.6351 35.6223 39.1808C34.4107 37.6009 32.9577 36.624 31.253 36.624C30.751 36.624 30.2574 36.666 29.8553 36.8122C29.6486 36.8874 29.4003 37.0133 29.1958 37.2363C28.9714 37.4811 28.845 37.7957 28.845 38.136C28.845 38.5801 29.0716 38.9048 29.2659 39.0991C29.4582 39.2914 29.6921 39.4336 29.9098 39.5424C30.0275 39.6013 30.0987 39.6472 30.137 39.6761L30.1861 39.7743L30.3243 39.8999C31.1585 40.6583 31.69 41.4572 31.9683 42.2922C32.3044 43.3005 32.5976 44.2641 32.8482 45.1831L32.8488 45.1852C33.7729 48.5457 34.5331 52.4255 35.1259 56.8294L35.1272 56.8387L35.1286 56.8481C35.8106 61.2808 36.4503 65.2475 37.0478 68.7477C37.3116 70.801 37.7841 72.4688 38.5381 73.65C39.327 74.886 40.4517 75.616 41.877 75.616C42.993 75.616 44.2338 75.3832 44.7893 74.3533C45.2724 73.5953 45.437 72.5601 45.437 71.416C45.437 69.8959 45.2592 68.1774 44.9129 66.2672C44.6646 64.4397 44.541 62.6574 44.541 60.92C44.541 57.8375 44.874 54.5337 45.5452 51.0063C46.3053 47.4611 47.2338 43.9579 48.3309 40.4968C49.5144 37.032 50.7797 33.8703 52.1258 31.0098C53.4717 28.1499 54.758 25.916 55.9796 24.2845C56.6259 23.4782 57.1972 22.9179 57.6902 22.5657C58.1887 22.2097 58.5422 22.112 58.773 22.112C58.8785 22.112 59.1684 22.1458 59.5266 22.9338L59.5502 22.9857L59.5795 23.0345C59.9698 23.685 60.205 24.5992 60.205 25.848C60.205 27.7797 59.8414 30.1633 59.0863 33.0161C58.3209 35.9075 57.4273 39.099 56.4053 42.5911L56.403 42.5989L56.4008 42.6068C55.456 46.0426 54.5977 49.6476 53.8257 53.4215C53.0442 57.156 52.653 60.8932 52.653 64.632V64.6355V64.639V64.6425V64.6461V64.6496V64.6531V64.6567V64.6603V64.6638V64.6674V64.671V64.6746V64.6782V64.6818V64.6854V64.689V64.6926V64.6963V64.6999V64.7036V64.7072V64.7109V64.7146V64.7183V64.7219V64.7256V64.7294V64.7331V64.7368V64.7405V64.7443V64.748V64.7518V64.7555V64.7593V64.7631V64.7668V64.7706V64.7744V64.7783V64.7821V64.7859V64.7897V64.7936V64.7974V64.8013V64.8051V64.809V64.8129V64.8168V64.8207V64.8246V64.8285V64.8324V64.8363V64.8403V64.8442V64.8481V64.8521V64.8561V64.86V64.864V64.868V64.872V64.876V64.88V64.884V64.8881V64.8921V64.8961V64.9002V64.9043V64.9083V64.9124V64.9165V64.9206V64.9247V64.9288V64.9329V64.937V64.9411V64.9453V64.9494V64.9536V64.9577V64.9619V64.9661V64.9703V64.9744V64.9786V64.9828V64.9871V64.9913V64.9955V64.9998V65.004V65.0083V65.0125V65.0168V65.0211V65.0254V65.0296V65.0339V65.0383V65.0426V65.0469V65.0512V65.0556V65.0599V65.0643V65.0686V65.073V65.0774V65.0818V65.0862V65.0906V65.095V65.0994V65.1038V65.1083V65.1127V65.1171V65.1216V65.1261V65.1305V65.135V65.1395V65.144V65.1485V65.153V65.1575V65.1621V65.1666V65.1711V65.1757V65.1803V65.1848V65.1894V65.194V65.1986V65.2032V65.2078V65.2124V65.217V65.2216V65.2263V65.2309V65.2356V65.2402V65.2449V65.2496V65.2543V65.2589V65.2636V65.2683V65.2731V65.2778V65.2825V65.2873V65.292V65.2968V65.3015V65.3063V65.3111V65.3158V65.3206V65.3254V65.3303V65.3351V65.3399V65.3447V65.3496V65.3544V65.3593V65.3641V65.369V65.3739V65.3788V65.3837V65.3886V65.3935V65.3984V65.4033V65.4083V65.4132V65.4181V65.4231V65.4281V65.433V65.438V65.443V65.448V65.453V65.458V65.463V65.4681V65.4731V65.4781V65.4832V65.4883V65.4933V65.4984V65.5035V65.5086V65.5137V65.5188V65.5239V65.529V65.5341V65.5393V65.5444V65.5496V65.5547V65.5599V65.5651V65.5703V65.5754V65.5806V65.5858V65.5911V65.5963V65.6015V65.6068V65.612V65.6173V65.6225V65.6278V65.6331V65.6383V65.6436V65.6489V65.6543V65.6596V65.6649V65.6702V65.6756V65.6809V65.6863V65.6916V65.697V65.7024V65.7078V65.7132V65.7186V65.724V65.7294V65.7348V65.7402V65.7457V65.7511V65.7566V65.7621V65.7675V65.773V65.7785V65.784V65.7895V65.795V65.8005V65.8061V65.8116V65.8171V65.8227V65.8283V65.8338V65.8394V65.845V65.8506V65.8562V65.8618V65.8674V65.873V65.8786V65.8843V65.8899V65.8956V65.9012V65.9069V65.9126V65.9183V65.9239V65.9296V65.9353V65.9411V65.9468V65.9525V65.9583V65.964V65.9698V65.9755V65.9813V65.9871V65.9928V65.9986V66.0044V66.0103V66.0161V66.0219V66.0277V66.0336V66.0394V66.0453V66.0511V66.057V66.0629V66.0688V66.0747V66.0806V66.0865V66.0924V66.0983V66.1043V66.1102V66.1161V66.1221V66.1281V66.134V66.14V66.146V66.152V66.158V66.164V66.17V66.1761V66.1821V66.1881V66.1942V66.2002V66.2063V66.2124V66.2185V66.2246V66.2307V66.2368V66.2429V66.249V66.2551V66.2613V66.2674V66.2736V66.2797V66.2859V66.2921V66.2982V66.3044V66.3106V66.3168V66.3231V66.3293V66.3355V66.3418V66.348V66.3543V66.3605V66.3668V66.3731V66.3793V66.3856V66.3919V66.3983V66.4046V66.4109V66.4172V66.4236V66.4299V66.4363V66.4426V66.449V66.4554V66.4618V66.4682V66.4746V66.481V66.4874V66.4938V66.5002V66.5067V66.5131V66.5196V66.5261V66.5325V66.539V66.5455V66.552V66.5585V66.565V66.5715V66.5781V66.5846V66.5911V66.5977V66.6042V66.6108V66.6174V66.624V66.6306V66.6372V66.6438V66.6504V66.657V66.6636V66.6703V66.6769V66.6836V66.6902V66.6969V66.7036V66.7102V66.7169V66.7236V66.7303V66.7371V66.7438V66.7505V66.7573V66.764V66.7708V66.7775V66.7843V66.7911V66.7978V66.8046V66.8114V66.8182V66.8251V66.8319V66.8387V66.8456V66.8524V66.8593V66.8661V66.873V66.8799V66.8868V66.8937V66.9006V66.9075V66.9144V66.9213V66.9282V66.9352V66.9421V66.9491V66.9561V66.963V66.97V66.977V66.984V66.991V66.998V67.005V67.0121V67.0191V67.0261V67.0332V67.0402V67.0473V67.0544V67.0615V67.0686V67.0757V67.0828V67.0899V67.097V67.1041V67.1113V67.1184V67.1256V67.1327V67.1399V67.1471V67.1542V67.1614V67.1686V67.1758V67.1831V67.1903V67.1975V67.2048V67.212V67.2193V67.2265V67.2338V67.2411V67.2483V67.2556V67.2629V67.2702V67.2776V67.2849V67.2922V67.2996V67.3069V67.3143V67.3216V67.329V67.3364V67.3438V67.3512V67.3586V67.366V67.3734V67.3808V67.3882V67.3957V67.4031V67.4106V67.4181V67.4255V67.433V67.4405V67.448V67.4837L52.6555 67.5192C52.7384 68.6786 52.8246 69.5362 52.9212 70.0392C53.0189 70.7965 53.2114 71.5161 53.5019 72.1939L53.5244 72.2465L53.5528 72.2961C54.0398 73.1484 54.812 73.696 55.829 73.696C56.4677 73.696 56.9998 73.3989 57.365 72.912C57.6951 72.4719 57.8703 71.907 57.9674 71.3244L57.9675 71.3244L57.9694 71.3121C58.1385 70.2125 58.2627 69.4689 58.3432 69.0641C58.9114 66.5563 60.224 63.4574 62.3305 59.75C64.428 56.0583 66.8588 52.7063 69.6222 49.6917L69.6334 49.6794L69.6443 49.6668C70.1414 49.0868 70.9823 48.1613 72.1761 46.8823C73.3399 45.6353 74.5419 44.5167 75.7817 43.5249L75.7817 43.5249L75.7876 43.5201C76.4438 42.9869 76.9879 42.6122 77.4253 42.3753C77.7514 42.1986 77.973 42.1236 78.108 42.0952C78.1178 42.1602 78.125 42.2472 78.125 42.36C78.125 42.9564 77.9154 43.9785 77.4083 45.4998L77.4053 45.5087L77.4025 45.5177C77.0008 46.8033 76.1773 48.7072 74.9026 51.2568L74.8965 51.2689L74.8908 51.2811C73.7008 53.831 72.2969 56.724 70.6786 59.9608L70.6738 59.9703L70.6693 59.9799C69.1265 63.2369 67.6271 66.6213 66.171 70.1328C64.7069 73.5781 63.4989 76.9425 62.5484 80.2259L62.5466 80.2325C61.5911 83.6201 61.101 86.6585 61.101 89.336C61.101 91.6204 61.6051 93.6753 62.6436 95.469Z" stroke="black" stroke-width="2"/>
  <path d="M12.2538 67.0947C11.3243 65.044 10.2683 62.8365 9.08643 60.4728C7.78893 57.8778 7.144 55.1719 7.144 52.344C7.144 51.7031 7.18405 51.0619 7.26428 50.42L7.26437 50.42L7.26588 50.4064C7.34308 49.7117 7.4979 49.0126 7.73268 48.3082L7.73704 48.2952L7.74103 48.282C8.54953 45.6139 9.96879 43.0902 12.0207 40.7097C14.1647 38.2362 16.6342 36.2203 19.4318 34.6569C22.2012 33.1093 24.9788 32.352 27.776 32.352C28.7452 32.352 29.8067 32.4328 30.9626 32.598L30.9626 32.598L30.9718 32.5992C32.0796 32.7469 32.7417 33.1298 33.1306 33.6299L33.1453 33.6487L33.1607 33.6668C33.4886 34.0493 33.688 34.5717 33.688 35.32C33.688 35.5037 33.6786 35.6348 33.6661 35.7226C33.6606 35.7608 33.6555 35.7839 33.6528 35.7947C33.5377 36.0321 33.3523 36.5033 33.1117 37.1449L33.0917 37.1982L33.0779 37.2535C32.8984 37.9713 32.792 38.616 32.792 39.16C32.792 39.4955 32.8422 39.9221 33.088 40.2907C33.3814 40.7309 33.842 40.928 34.304 40.928C35.0634 40.928 35.75 40.6642 36.2911 40.1231C36.6754 39.7388 36.994 39.328 37.2221 38.8871C37.8855 37.8307 38.248 36.7226 38.248 35.576C38.248 33.797 37.4523 32.2277 36.023 30.8888C34.7088 29.5787 33.1179 28.6477 31.2703 28.0923C29.532 27.5443 27.5518 27.28 25.344 27.28C24.5389 27.28 23.734 27.3247 22.9296 27.4141L23.0399 28.4071L22.9296 27.4141C22.1289 27.5031 21.366 27.6368 20.642 27.8167C17.6314 28.439 14.7185 29.5899 11.9055 31.2601L11.9054 31.2601L11.8934 31.2674C9.12566 32.9638 6.84368 35.1557 5.05595 37.8373C3.23568 40.5677 2.25142 43.7775 2.07319 47.4313L2.07308 47.4335C1.89798 51.1982 2.33102 54.4274 3.42798 57.0784C4.47237 59.6023 5.65219 61.877 6.97039 63.8983L6.976 63.9069L6.98177 63.9153C8.02464 65.4449 8.79017 66.9574 9.29025 68.4532C8.91413 68.6524 8.42422 68.9247 7.82386 69.2678L7.80975 69.2758L7.7959 69.2843C7.24246 69.6249 6.80879 69.8893 6.49351 70.0785C6.33569 70.1732 6.20996 70.2476 6.11496 70.3026C6.06747 70.3301 6.02956 70.3516 6.00036 70.3678C5.98584 70.3759 5.97446 70.3821 5.96585 70.3867L5.95602 70.3919C5.95365 70.3931 5.95263 70.3937 5.95279 70.3936C4.3356 71.2022 3.09018 72.1579 2.35634 73.3111C1.71497 74.319 1.304 75.3221 1.304 76.28C1.304 77.0775 1.53457 77.8211 1.97809 78.4899C2.83531 79.8286 4.35368 80.352 6.144 80.352C7.52666 80.352 8.91686 79.9583 10.3032 79.2228C11.703 78.5651 12.783 77.6742 13.4219 76.5029C14.0103 75.424 14.312 74.2788 14.312 73.08C14.312 72.1893 14.17 71.2848 13.8957 70.3692C15.0043 69.7992 15.961 69.3476 16.7686 69.0111C17.8059 68.5789 18.4069 68.3398 18.6202 68.2687L18.6418 68.2615L18.663 68.2533C19.2542 68.026 19.7731 67.7716 20.1617 67.4726C20.5286 67.1904 20.968 66.7187 20.968 66.04C20.968 65.5732 20.7409 65.1456 20.3225 64.8945C19.9855 64.6923 19.6087 64.656 19.328 64.656H19.3275H19.327H19.3265H19.326H19.3255H19.325H19.3245H19.3239H19.3234H19.3229H19.3224H19.3219H19.3213H19.3208H19.3203H19.3198H19.3192H19.3187H19.3181H19.3176H19.3171H19.3165H19.316H19.3154H19.3149H19.3143H19.3138H19.3132H19.3127H19.3121H19.3116H19.311H19.3104H19.3099H19.3093H19.3087H19.3082H19.3076H19.307H19.3064H19.3059H19.3053H19.3047H19.3041H19.3035H19.3029H19.3023H19.3018H19.3012H19.3006H19.3H19.2994H19.2988H19.2982H19.2975H19.2969H19.2963H19.2957H19.2951H19.2945H19.2939H19.2932H19.2926H19.292H19.2914H19.2907H19.2901H19.2895H19.2889H19.2882H19.2876H19.2869H19.2863H19.2857H19.285H19.2844H19.2837H19.2831H19.2824H19.2818H19.2811H19.2804H19.2798H19.2791H19.2784H19.2778H19.2771H19.2764H19.2758H19.2751H19.2744H19.2737H19.2731H19.2724H19.2717H19.271H19.2703H19.2696H19.2689H19.2682H19.2675H19.2668H19.2661H19.2654H19.2647H19.264H19.2633H19.2626H19.2619H19.2612H19.2605H19.2598H19.259H19.2583H19.2576H19.2569H19.2561H19.2554H19.2547H19.2539H19.2532H19.2525H19.2517H19.251H19.2502H19.2495H19.2488H19.248H19.2472H19.2465H19.2457H19.245H19.2442H19.2435H19.2427H19.2419H19.2412H19.2404H19.2396H19.2389H19.2381H19.2373H19.2365H19.2358H19.235H19.2342H19.2334H19.2326H19.2318H19.231H19.2302H19.2294H19.2286H19.2278H19.227H19.2262H19.2254H19.2246H19.2238H19.223H19.2222H19.2214H19.2206H19.2197H19.2189H19.2181H19.2173H19.2164H19.2156H19.2148H19.2139H19.2131H19.2123H19.2114H19.2106H19.2098H19.2089H19.2081H19.2072H19.2064H19.2055H19.2047H19.2038H19.2029H19.2021H19.2012H19.2004H19.1995H19.1986H19.1977H19.1969H19.196H19.1951H19.1942H19.1934H19.1925H19.1916H19.1907H19.1898H19.1889H19.188H19.1872H19.1863H19.1854H19.1845H19.1836H19.1827H19.1818H19.1808H19.1799H19.179H19.1781H19.1772H19.1763H19.1754H19.1744H19.1735H19.1726H19.1717H19.1707H19.1698H19.1689H19.1679H19.167H19.1661H19.1651H19.1642H19.1632H19.1623H19.1613H19.1604H19.1594H19.1585H19.1575H19.1566H19.1556H19.1546H19.1537H19.1527H19.1518H19.1508H19.1498H19.1488H19.1479H19.1469H19.1459H19.1449H19.1439H19.143H19.142H19.141H19.14H19.139H19.138H19.137H19.136H19.135H19.134H19.133H19.132H19.131H19.13H19.129H19.1279H19.1269H19.1259H19.1249H19.1239H19.1228H19.1218H19.1208H19.1198H19.1187H19.1177H19.1166H19.1156H19.1146H19.1135H19.1125H19.1114H19.1104H19.1093H19.1083H19.1072H19.1062H19.1051H19.1041H19.103H19.1019H19.1009H19.0998H19.0987H19.0977H19.0966H19.0955H19.0944H19.0934H19.0923H19.0912H19.0901H19.089H19.0879H19.0868H19.0858H19.0847H19.0836H19.0825H19.0814H19.0803H19.0792H19.078H19.0769H19.0758H19.0747H19.0736H19.0725H19.0714H19.0702H19.0691H19.068H19.0669H19.0657H19.0646H19.0635H19.0624H19.0612H19.0601H19.0589H19.0578H19.0567H19.0555H19.0544H19.0532H19.0521H19.0509H19.0498H19.0486H19.0474H19.0463H19.0451H19.0439H19.0428H19.0416H19.0404H19.0393H19.0381H19.0369H19.0357H19.0346H19.0334H19.0322H19.031H19.0298H19.0286H19.0274H19.0262H19.025H19.0238H19.0226H19.0214H19.0202H19.019H19.0178H19.0166H19.0154H19.0142H19.013H19.0118H19.0105H19.0093H19.0081H19.0069H19.0056H19.0044H19.0032H19.0019H19.0007H18.9995H18.9982H18.997H18.9957H18.9945H18.9932H18.992H18.9907H18.9895H18.9882H18.987H18.9857H18.9845H18.9832H18.9819H18.9807H18.9794H18.9781H18.9769H18.9756H18.9743H18.973H18.9718H18.9705H18.9692H18.9679H18.9666H18.9653H18.964H18.9627H18.9614H18.9601H18.9588H18.9575H18.9562H18.9549H18.9536H18.9523H18.951H18.9497H18.9484H18.9471H18.9457H18.9444H18.9431H18.9418H18.9404H18.9391H18.9378H18.9364H18.9351H18.9338H18.9324H18.9311H18.9298H18.9284H18.9271H18.9257H18.9244H18.923H18.9217H18.9203H18.9189H18.9176H18.9162H18.9149H18.9135H18.9121H18.9107H18.9094H18.908H18.9066H18.9052H18.9039H18.9025H18.9011H18.8997H18.8983H18.8969H18.8955H18.8942H18.8928H18.8914H18.89H18.8886H18.8872H18.8857H18.8843H18.8829H18.8815H18.8801H18.8787H18.8773H18.8759H18.8744H18.873H18.8716H18.8702H18.8687H18.8673H18.8659H18.8644H18.863H18.8616H18.8601H18.8587H18.8572H18.8558H18.8543H18.8529H18.8514H18.85H18.8485H18.8471H18.8456H18.8441H18.8427H18.8412H18.8398H18.8383H18.8368H18.8353H18.8339H18.8324H18.8309H18.8294H18.8279H18.8265H18.825H18.8235H18.822H18.8205H18.819H18.8175H18.816C18.5037 64.656 18.1853 64.7288 17.8872 64.8263C16.182 65.2938 14.3028 66.0544 12.2538 67.0947ZM8.51511 73.9151C8.96807 73.4621 9.46628 73.0279 10.0107 72.613C9.87964 72.9781 9.63669 73.3791 9.24071 73.819C8.6546 74.4703 8.10139 74.9218 7.58622 75.2094C7.70077 74.8301 7.97024 74.412 8.48067 73.9479L8.49828 73.9319L8.51511 73.9151ZM7.52384 75.7856C7.52381 75.7856 7.5236 75.7849 7.52325 75.7835L7.52384 75.7856Z" stroke="black" stroke-width="2"/>
</svg>